<svg xmlns="http://www.w3.org/2000/svg" version="1.1" xmlns:xlink="http://www.w3.org/1999/xlink" xmlns:svgjs="http://svgjs.com/svgjs" width="512" height="512" x="0" y="0" viewBox="0 0 512 512" style="enable-background:new 0 0 512 512" xml:space="preserve" class=""><g>
<path xmlns="http://www.w3.org/2000/svg" style="" d="M400,0H185.379v512H400c61.856,0,112-50.144,112-112V112C512,50.144,461.856,0,400,0z" fill="#ff4b55" data-original="#ff4b55"></path>
<path xmlns="http://www.w3.org/2000/svg" style="" d="M112,0C50.144,0,0,50.144,0,112v288c0,61.856,50.144,112,112,112h73.379V0H112z" fill="#73af00" data-original="#73af00"></path>
<circle xmlns="http://www.w3.org/2000/svg" style="" cx="185.45" cy="256" r="112.38" fill="#ffe15a" data-original="#ffe15a"></circle>
<path xmlns="http://www.w3.org/2000/svg" style="" d="M222.941,218.508v49.99c0,20.673-16.819,37.492-37.492,37.492s-37.492-16.819-37.492-37.492v-49.99  L222.941,218.508 M235.438,193.513h-99.98c-6.902,0-12.497,5.595-12.497,12.497v62.487c0,34.511,27.977,62.487,62.487,62.487  s62.487-27.977,62.487-62.487V206.01C247.936,199.108,242.34,193.513,235.438,193.513L235.438,193.513z" fill="#ff4b55" data-original="#ff4b55"></path>
<path xmlns="http://www.w3.org/2000/svg" style="" d="M211.931,229.517v35.31c0,14.603-11.88,26.483-26.483,26.483s-26.483-11.88-26.483-26.483v-35.31  H211.931" fill="#f5f5f5" data-original="#f5f5f5"></path>
<g xmlns="http://www.w3.org/2000/svg">
	<circle style="" cx="135.36" cy="206.01" r="6.249" fill="#ffe15a" data-original="#ffe15a"></circle>
	<circle style="" cx="235.34" cy="206.01" r="6.249" fill="#ffe15a" data-original="#ffe15a"></circle>
	<circle style="" cx="135.36" cy="256" r="6.249" fill="#ffe15a" data-original="#ffe15a"></circle>
	<circle style="" cx="235.34" cy="256" r="6.249" fill="#ffe15a" data-original="#ffe15a"></circle>
	<circle style="" cx="185.35" cy="206.01" r="6.249" fill="#ffe15a" data-original="#ffe15a"></circle>
	<circle style="" cx="222.87" cy="302.08" r="6.249" fill="#ffe15a" data-original="#ffe15a"></circle>
	<circle style="" cx="148.57" cy="302.08" r="6.249" fill="#ffe15a" data-original="#ffe15a"></circle>
</g>
<g xmlns="http://www.w3.org/2000/svg">
	<path style="" d="M193.52,252.832v10.762c0,4.451-3.621,8.071-8.071,8.071s-8.071-3.621-8.071-8.071v-10.762H193.52" fill="#41479b" data-original="#41479b"></path>
	<path style="" d="M193.52,227.317v10.762c0,4.451-3.621,8.071-8.071,8.071s-8.071-3.621-8.071-8.071v-10.762H193.52" fill="#41479b" data-original="#41479b"></path>
	<path style="" d="M193.52,278.608v10.762c0,4.451-3.621,8.071-8.071,8.071s-8.071-3.621-8.071-8.071v-10.762H193.52" fill="#41479b" data-original="#41479b"></path>
	<path style="" d="M215.26,252.832v10.762c0,4.451-3.621,8.071-8.071,8.071s-8.071-3.621-8.071-8.071v-10.762H215.26" fill="#41479b" data-original="#41479b"></path>
	<path style="" d="M171.779,252.832v10.762c0,4.451-3.621,8.071-8.071,8.071s-8.071-3.621-8.071-8.071v-10.762H171.779   " fill="#41479b" data-original="#41479b"></path>
</g>
<g xmlns="http://www.w3.org/2000/svg">
</g>
<g xmlns="http://www.w3.org/2000/svg">
</g>
<g xmlns="http://www.w3.org/2000/svg">
</g>
<g xmlns="http://www.w3.org/2000/svg">
</g>
<g xmlns="http://www.w3.org/2000/svg">
</g>
<g xmlns="http://www.w3.org/2000/svg">
</g>
<g xmlns="http://www.w3.org/2000/svg">
</g>
<g xmlns="http://www.w3.org/2000/svg">
</g>
<g xmlns="http://www.w3.org/2000/svg">
</g>
<g xmlns="http://www.w3.org/2000/svg">
</g>
<g xmlns="http://www.w3.org/2000/svg">
</g>
<g xmlns="http://www.w3.org/2000/svg">
</g>
<g xmlns="http://www.w3.org/2000/svg">
</g>
<g xmlns="http://www.w3.org/2000/svg">
</g>
<g xmlns="http://www.w3.org/2000/svg">
</g>
</g></svg>